<svg id="Layer_1" data-name="Layer 1" xmlns="http://www.w3.org/2000/svg" xmlns:xlink="http://www.w3.org/1999/xlink" viewBox="0 0 241.23 50.96"><defs><style>.cls-1{fill:#fff;}</style></defs><image width="512" height="512" transform="scale(0.1)" xlink:href="../../../../../../Users/RITA/Downloads/icon-02-primary.png"/><path class="cls-1" d="M71.54,79.74V58.58l-.77-3.91.77-2.32H83.92a14.12,14.12,0,0,1,5.09.87,7.31,7.31,0,0,1,3.6,2.94,10.47,10.47,0,0,1,1.33,5.71,10.4,10.4,0,0,1-1.2,5.32,7.62,7.62,0,0,1-3.32,3l.38.42,3.83,4.8,2.21,2v2.32H87.13L81.72,71.5H78.5v2l.39,3.87-.39,2.36Zm7-14.31h3.8a5.91,5.91,0,0,0,3.21-.76,3,3,0,0,0,1.2-2.8,3.4,3.4,0,0,0-.58-2.15,2.83,2.83,0,0,0-1.61-.95,11.17,11.17,0,0,0-2.38-.23h-4Z" transform="translate(-19.19 -38.18)"/><path class="cls-1" d="M106.67,80.13a14.83,14.83,0,0,1-5.3-.89,7.27,7.27,0,0,1-3.64-3,10.57,10.57,0,0,1-1.31-5.65,10,10,0,0,1,.87-4.37,8.11,8.11,0,0,1,2.34-3,9.55,9.55,0,0,1,3.29-1.66,13.43,13.43,0,0,1,3.75-.53,15.55,15.55,0,0,1,5.13.66,13.17,13.17,0,0,1,2.38,1L116.11,69l-.77,2.4h-12a4,4,0,0,0,1.44,2.4,6,6,0,0,0,3.83,1,12.35,12.35,0,0,0,3.6-.46c1-.31,1.79-.58,2.35-.81v5.18a12.84,12.84,0,0,1-3.34,1.07A23.25,23.25,0,0,1,106.67,80.13Zm-3.29-11.26,5.34-.77-.35-1.67a2.34,2.34,0,0,0-.79-.23,6.6,6.6,0,0,0-.91-.08,3.26,3.26,0,0,0-1.8.47,3.32,3.32,0,0,0-1.08,1.1A2.83,2.83,0,0,0,103.38,68.87Z" transform="translate(-19.19 -38.18)"/><path class="cls-1" d="M119.36,89.15V68.06l-.77-4.26,1.2-2.36h5.76v1.67l.39.19a12.13,12.13,0,0,1,2.61-1.72A6.68,6.68,0,0,1,131.4,61a6.82,6.82,0,0,1,5.39,2.2q2,2.2,2,7a14,14,0,0,1-1,5.74,6.62,6.62,0,0,1-2.65,3.15,7.21,7.21,0,0,1-3.71,1,13.7,13.7,0,0,1-5.07-.89v10Zm8.75-14.4a3,3,0,0,0,2.38-1,4.79,4.79,0,0,0,.91-3.18,5,5,0,0,0-.74-3,2.54,2.54,0,0,0-2.17-1l-2.16.81v6.93A3.34,3.34,0,0,0,128.11,74.75Z" transform="translate(-19.19 -38.18)"/><path class="cls-1" d="M147.07,80.13a9.52,9.52,0,0,1-3.08-.48A4.51,4.51,0,0,1,141.73,78a5.65,5.65,0,0,1-.85-3.32,5.24,5.24,0,0,1,1-3.22,5.7,5.7,0,0,1,2.63-1.89,10.78,10.78,0,0,1,3.76-.62,8,8,0,0,1,3,.44,13.9,13.9,0,0,1,1.74.91l.27-.23a8,8,0,0,0-.2-1.93,1.8,1.8,0,0,0-.89-1.18,4.41,4.41,0,0,0-2.16-.41,19.35,19.35,0,0,0-3,.25,28.46,28.46,0,0,0-2.94.62,9.94,9.94,0,0,0-2,.72V62.29a22.12,22.12,0,0,1,3.42-.79,34.93,34.93,0,0,1,5.48-.37,14.3,14.3,0,0,1,5.51.87,5.73,5.73,0,0,1,2.92,2.52,8.15,8.15,0,0,1,.89,3.93v5.14L161,77.5l-.77,2.28h-6.62V77.89l-.38-.2a9.91,9.91,0,0,1-1.09.89,8.44,8.44,0,0,1-2,1.07A8.68,8.68,0,0,1,147.07,80.13Zm3.28-5.07a7.25,7.25,0,0,0,1.8-.19,8.34,8.34,0,0,0,1.11-.35v-.73c0-.34-.24-.66-.72-1a4.17,4.17,0,0,0-2.22-.47c-1.4,0-2.09.49-2.09,1.47a1,1,0,0,0,.46.93A3.14,3.14,0,0,0,150.35,75.06Z" transform="translate(-19.19 -38.18)"/><path class="cls-1" d="M168.38,60.36l-4.91-5,4.91-4.92,4.92,4.92ZM164.9,79.74V66.94l-.81-3.1.77-2.36h7V79.74Z" transform="translate(-19.19 -38.18)"/><path class="cls-1" d="M176.24,79.74V67.63l-.81-3.87.81-2.32h5.26l.77.89a10,10,0,0,1,2.07-1,8,8,0,0,1,2.31-.3,10,10,0,0,1,1.54.11,4.66,4.66,0,0,1,1.2.31l2.52,2.13-2.52,5-5.1-2.13-1.17.39V79.74Z" transform="translate(-19.19 -38.18)"/><path class="cls-1" d="M195,79.74l-.77-2.32.77-3.87V52.35h7v15.9l-.39,5.3h.77l6.93-.38,2.75-.39,3.4,4.49-1.89,2.47Z" transform="translate(-19.19 -38.18)"/><path class="cls-1" d="M223.17,80.13a9.56,9.56,0,0,1-3.08-.48A4.55,4.55,0,0,1,217.83,78a5.65,5.65,0,0,1-.85-3.32,5.18,5.18,0,0,1,1-3.22,5.65,5.65,0,0,1,2.63-1.89,10.76,10.76,0,0,1,3.75-.62,8,8,0,0,1,3,.44,13.9,13.9,0,0,1,1.74.91l.27-.23a8.05,8.05,0,0,0-.19-1.93,1.84,1.84,0,0,0-.89-1.18,4.48,4.48,0,0,0-2.17-.41,19.44,19.44,0,0,0-3,.25,28.46,28.46,0,0,0-2.94.62,10.18,10.18,0,0,0-2,.72V62.29a22.12,22.12,0,0,1,3.42-.79,35,35,0,0,1,5.48-.37,14.27,14.27,0,0,1,5.51.87,5.69,5.69,0,0,1,2.92,2.52,8,8,0,0,1,.89,3.93v5.14l.78,3.91-.78,2.28h-6.61V77.89l-.39-.2a10.6,10.6,0,0,1-1.08.89,8.35,8.35,0,0,1-5.11,1.55Zm3.29-5.07a7.31,7.31,0,0,0,1.8-.19,8.1,8.1,0,0,0,1.1-.35v-.73c0-.34-.24-.66-.72-1a4.12,4.12,0,0,0-2.22-.47c-1.39,0-2.09.49-2.09,1.47a1,1,0,0,0,.46.93A3.19,3.19,0,0,0,226.46,75.06Z" transform="translate(-19.19 -38.18)"/><path class="cls-1" d="M253.08,80.13a10.64,10.64,0,0,1-3-.33,8,8,0,0,1-2.11-1v1h-7V58.58l-.81-3.87.81-2.32h7v6.23L247.62,63l.39.19a10.4,10.4,0,0,1,1.91-1.41,6.23,6.23,0,0,1,3.16-.68,6.87,6.87,0,0,1,5.4,2.21q1.95,2.2,1.95,7a14.08,14.08,0,0,1-1,5.75,6.56,6.56,0,0,1-2.65,3.15A7.21,7.21,0,0,1,253.08,80.13Zm-3.29-5.3a3,3,0,0,0,2.4-1.06,4.92,4.92,0,0,0,.89-3.2,5,5,0,0,0-.74-3,2.55,2.55,0,0,0-2.16-1L248,67.4v6.93A3.34,3.34,0,0,0,249.79,74.83Z" transform="translate(-19.19 -38.18)"/></svg>